<?xml version="1.0" encoding="utf-8"?>
<!-- Generator: Adobe Illustrator 18.0.0, SVG Export Plug-In . SVG Version: 6.00 Build 0)  -->
<!DOCTYPE svg PUBLIC "-//W3C//DTD SVG 1.1//EN" "http://www.w3.org/Graphics/SVG/1.1/DTD/svg11.dtd">
<svg version="1.1" id="Layer_1" xmlns="http://www.w3.org/2000/svg" xmlns:xlink="http://www.w3.org/1999/xlink" x="0px" y="0px"
	 viewBox="0 0 72 72" style="enable-background:new 0 0 72 72;" xml:space="preserve">
<g>
	<path d="M70.1,29.5l-10.7-2c-1-0.2-1.4-1.1-0.8-1.9l6.2-9.1c0.6-0.9,0.5-2.2-0.3-3l-5.9-5.9c-0.7-0.8-2.1-0.9-3-0.3l-9.1,6.2
		c-0.9,0.6-1.8,0.2-1.9-0.8l-2-10.8c-0.2-1-1.2-1.9-2.3-1.9h-8.4c-1.1,0-2.1,0.9-2.3,1.9l-2,10.7c-0.2,1-1.1,1.4-1.9,0.8l-9.1-6.2
		c-0.9-0.6-2.2-0.5-3,0.3l-5.9,5.9c-0.8,0.8-0.9,2.1-0.3,3l6.2,9.1c0.6,0.9,0.2,1.8-0.8,1.9l-10.7,2c-1,0.2-1.9,1.2-1.9,2.3v8.4
		c0,1.1,0.9,2.1,1.9,2.3l10.7,2c1,0.2,1.4,1.1,0.8,1.9l-6.2,9.1c-0.6,0.9-0.5,2.2,0.3,3l5.9,5.9c0.8,0.8,2.1,0.9,3,0.3l9.1-6.2
		c0.9-0.6,1.8-0.2,1.9,0.8l2,10.7c0.2,1,1.2,1.9,2.3,1.9h8.4c1.1,0,2.1-0.9,2.3-1.9l2-10.7c0.2-1,1.1-1.4,1.9-0.8l9.1,6.2
		c0.9,0.6,2.2,0.5,3-0.3l5.9-5.9c0.8-0.8,0.9-2.1,0.3-3l-6.2-9.1c-0.6-0.9-0.2-1.8,0.8-1.9l10.8-2c1-0.2,1.9-1.2,1.9-2.3v-8.4
		C72,30.7,71.1,29.7,70.1,29.5z M36,49c-7.2,0-13-5.8-13-13s5.8-13,13-13s13,5.8,13,13S43.2,49,36,49z"/>
</g>
<g>
</g>
<g>
</g>
<g>
</g>
<g>
</g>
<g>
</g>
<g>
</g>
</svg>
