<?xml version="1.0" encoding="utf-8"?>
<!-- Generator: Adobe Illustrator 17.0.2, SVG Export Plug-In . SVG Version: 6.00 Build 0)  -->
<!DOCTYPE svg PUBLIC "-//W3C//DTD SVG 1.1//EN" "http://www.w3.org/Graphics/SVG/1.1/DTD/svg11.dtd">
<svg version="1.1" id="Layer_1" xmlns="http://www.w3.org/2000/svg" xmlns:xlink="http://www.w3.org/1999/xlink" x="0px" y="0px"
	 width="18px" height="36px" viewBox="0 0 18 36" style="enable-background:new 0 0 18 36;" xml:space="preserve">
<style type="text/css">
	.st0{fill:#3E3E3E;}
</style>
<path class="st0" d="M14.4,5.6H8.1L7.7,4.8C7.6,4.6,7.4,4.5,7.2,4.5H5c-0.2,0-0.4,0.1-0.5,0.3L4.1,5.6H3.6c-0.2,0-0.3,0.2-0.3,0.3
	v7.3c0,0.2,0.2,0.3,0.3,0.3h10.8c0.2,0,0.3-0.2,0.3-0.3V5.9C14.8,5.7,14.6,5.6,14.4,5.6z"/>
<g>
	<path class="st0" d="M3.2,31.2c0,0.2,0.2,0.3,0.3,0.3h10.8c0.2,0,0.3-0.2,0.3-0.3l1.2-2.5H2L3.2,31.2z"/>
	<path class="st0" d="M14.8,23.9c0-0.2-0.2-0.3-0.3-0.3H8.1l-0.4-0.8c-0.1-0.2-0.3-0.3-0.5-0.3H5c-0.2,0-0.4,0.1-0.5,0.3l-0.4,0.8
		H3.6c-0.2,0-0.3,0.2-0.3,0.3v3.8h11.5V23.9z"/>
</g>
<g>
</g>
<g>
</g>
<g>
</g>
<g>
</g>
<g>
</g>
<g>
</g>
<g>
</g>
<g>
</g>
<g>
</g>
<g>
</g>
<g>
</g>
<g>
</g>
<g>
</g>
<g>
</g>
<g>
</g>
</svg>
