<svg xmlns="http://www.w3.org/2000/svg" xmlns:xlink="http://www.w3.org/1999/xlink" width="0" height="0" style="position:absolute">

    <symbol id="cog" viewBox="0 0 72 72">
        <path d="M70.1 29.5l-10.7-2c-1-.2-1.4-1.1-.8-1.9l6.2-9.1c.6-.9.5-2.2-.3-3l-5.9-5.9c-.7-.8-2.1-.9-3-.3l-9.1 6.2c-.9.6-1.8.2-1.9-.8l-2-10.8C42.4.9 41.4 0 40.3 0h-8.4c-1.1 0-2.1.9-2.3 1.9l-2 10.7c-.2 1-1.1 1.4-1.9.8l-9.1-6.2c-.9-.6-2.2-.5-3 .3l-5.9 5.9c-.8.8-.9 2.1-.3 3l6.2 9.1c.6.9.2 1.8-.8 1.9l-10.7 2c-1 .2-1.9 1.2-1.9 2.3v8.4c0 1.1.9 2.1 1.9 2.3l10.7 2c1 .2 1.4 1.1.8 1.9l-6.2 9.1c-.6.9-.5 2.2.3 3l5.9 5.9c.8.8 2.1.9 3 .3l9.1-6.2c.9-.6 1.8-.2 1.9.8l2 10.7c.2 1 1.2 1.9 2.3 1.9h8.4c1.1 0 2.1-.9 2.3-1.9l2-10.7c.2-1 1.1-1.4 1.9-.8l9.1 6.2c.9.6 2.2.5 3-.3l5.9-5.9c.8-.8.9-2.1.3-3l-6.2-9.1c-.6-.9-.2-1.8.8-1.9l10.8-2c1-.2 1.9-1.2 1.9-2.3v-8.4c-.1-1-1-2-2-2.2zM36 49c-7.2 0-13-5.8-13-13s5.8-13 13-13 13 5.8 13 13-5.8 13-13 13z"/>
    </symbol>

    <symbol id="folder" viewBox="0 0 72 72">
        <path d="M69.8 14.8H30.3l-2.5-5c-.5-1.1-1.9-1.9-3.1-1.9H11.1c-1.2-.1-2.6.8-3.1 1.9l-2.5 5H2.2C1 14.8 0 15.8 0 17v45.3c0 1.2 1 2.2 2.2 2.2h67.7c1.2 0 2.2-1 2.2-2.2V17c-.1-1.2-1.1-2.2-2.3-2.2z"/>
    </symbol>

    <symbol id="folder-open" viewBox="0 0 72 72">
        <path d="M6.4 57.2c0 1 .8 1.8 1.8 1.8h55.6c1 0 1.8-.8 1.8-1.8L72 44.4H.1l6.3 12.8zM65.5 20c0-1-.8-1.8-1.8-1.8H31.2l-2-4.1c-.4-.9-1.6-1.6-2.6-1.6H15.4c-1 0-2.1.7-2.6 1.6l-2.1 4.1H8.1c-1 0-1.8.8-1.8 1.8v19.6h59.2V20z"/>
    </symbol>
</svg>