<?xml version="1.0" encoding="utf-8"?>
<!-- Generator: Adobe Illustrator 17.0.0, SVG Export Plug-In . SVG Version: 6.00 Build 0)  -->
<!DOCTYPE svg PUBLIC "-//W3C//DTD SVG 1.1//EN" "http://www.w3.org/Graphics/SVG/1.1/DTD/svg11.dtd">
<svg version="1.1" id="Layer_1" xmlns="http://www.w3.org/2000/svg" xmlns:xlink="http://www.w3.org/1999/xlink" x="0px" y="0px"
	 width="24px" height="48px" viewBox="0 0 24 48" style="enable-background:new 0 0 24 48;" xml:space="preserve">
<style type="text/css">
	.st0{fill:none;}
	.st1{fill:#BBBBBB;}
	.st2{fill:#78B2F2;}
</style>
<g>
	<rect x="3" y="3" class="st0" width="18" height="18"/>
	<path class="st1" d="M18.2,8.4c-0.2-1.2-0.5-1.8-0.7-2.2c-0.4-0.6-0.7-0.8-2.6-0.8H13v12.2c0,1.9,0.2,2.2,2.6,2.3v0.8H8.5V20
		c2.3-0.1,2.5-0.4,2.5-2.3V5.5H9.3c-1.9,0-2.4,0.2-2.7,0.8C6.3,6.6,6.1,7.3,5.8,8.4H5c0.1-1.5,0.2-3.1,0.3-4.5h0.5
		c0.4,0.6,0.7,0.6,1.4,0.6H17c0.7,0,0.8-0.2,1.2-0.6h0.6c0,1.2,0.1,3,0.3,4.4L18.2,8.4z"/>
</g>
<g>
	<rect x="3" y="27" class="st0" width="18" height="18"/>
	<path class="st2" d="M18.2,32.4c-0.2-1.2-0.5-1.8-0.7-2.2c-0.4-0.6-0.7-0.8-2.6-0.8H13v12.2c0,1.9,0.2,2.2,2.6,2.3v0.8H8.5V44
		c2.3-0.1,2.5-0.4,2.5-2.3V29.5H9.3c-1.9,0-2.4,0.2-2.7,0.8c-0.3,0.4-0.5,1.1-0.8,2.2H5c0.1-1.5,0.2-3,0.3-4.5h0.5
		c0.4,0.6,0.7,0.6,1.4,0.6H17c0.7,0,0.8-0.2,1.2-0.6h0.6c0,1.2,0.1,3,0.3,4.4L18.2,32.4z"/>
</g>
<g>
</g>
<g>
</g>
<g>
</g>
<g>
</g>
<g>
</g>
<g>
</g>
<g>
</g>
<g>
</g>
<g>
</g>
<g>
</g>
<g>
</g>
<g>
</g>
<g>
</g>
<g>
</g>
<g>
</g>
</svg>
