<?xml version="1.0" encoding="utf-8"?>
<!-- Generator: Adobe Illustrator 17.0.0, SVG Export Plug-In . SVG Version: 6.00 Build 0)  -->
<!DOCTYPE svg PUBLIC "-//W3C//DTD SVG 1.1//EN" "http://www.w3.org/Graphics/SVG/1.1/DTD/svg11.dtd">
<svg version="1.1" id="Layer_1" xmlns="http://www.w3.org/2000/svg" xmlns:xlink="http://www.w3.org/1999/xlink" x="0px" y="0px"
	 width="24px" height="48px" viewBox="0 0 24 48" style="enable-background:new 0 0 24 48;" xml:space="preserve">
<style type="text/css">
	.st0{fill:#BBBBBB;}
	.st1{fill:#78B2F2;}
</style>
<g>
	<path class="st0" d="M17.7,3H6.2C4.5,3,3,4.5,3,6.2v11.5c0,1.8,1.5,3.2,3.2,3.2h11.5c1.8,0,3.2-1.5,3.2-3.2V6.2
		C20.9,4.5,19.5,3,17.7,3z M17.6,9.7l-6.2,6.2c-0.2,0.2-0.5,0.3-0.8,0.3h-0.5c-0.3,0-0.6-0.1-0.8-0.3l-2.9-2.9
		c-0.2-0.2-0.2-0.5,0-0.7l1.2-1.2C7.7,11,8,11,8.2,11.1l1.9,1.9c0.2,0.2,0.5,0.2,0.7,0l5.1-5.1c0.2-0.2,0.5-0.2,0.7,0L17.6,9
		C17.8,9.2,17.8,9.5,17.6,9.7z"/>
</g>
<g>
	<g>
		<path class="st1" d="M17.7,27H6.2C4.5,27,3,28.5,3,30.2v11.5c0,1.8,1.5,3.2,3.2,3.2h11.5c1.8,0,3.2-1.5,3.2-3.2V30.2
			C20.9,28.5,19.5,27,17.7,27z M17.6,33.7l-6.2,6.2c-0.2,0.2-0.5,0.3-0.8,0.3h-0.5c-0.3,0-0.6-0.1-0.8-0.3l-2.9-2.9
			c-0.2-0.2-0.2-0.5,0-0.7l1.2-1.2C7.7,35,8,35,8.2,35.1l1.9,1.9c0.2,0.2,0.5,0.2,0.7,0l5.1-5.1c0.2-0.2,0.5-0.2,0.7,0l1.1,1.1
			C17.8,33.2,17.8,33.5,17.6,33.7z"/>
	</g>
</g>
<g>
</g>
<g>
</g>
<g>
</g>
<g>
</g>
<g>
</g>
<g>
</g>
<g>
</g>
<g>
</g>
<g>
</g>
<g>
</g>
<g>
</g>
<g>
</g>
<g>
</g>
<g>
</g>
<g>
</g>
</svg>
